
<svg xmlns="http://www.w3.org/2000/svg" width="43.497" height="43.54" viewBox="0 0 43.497 43.54">
  <g id="checklist" transform="translate(-0.251)">
    <path id="Path_90" data-name="Path 90" d="M62.153,145.924a1.313,1.313,0,0,0,1.814-.105l3.193-3.643a1.274,1.274,0,0,0-1.918-1.678L62.9,143.167l-.627-.567a1.274,1.274,0,1,0-1.71,1.888Z" transform="translate(-54.805 -128.161)" fill="#fff"/>
    <path id="Path_91" data-name="Path 91" d="M175.418,182.345h-7.355a1.273,1.273,0,1,0,0,2.547h7.355a1.273,1.273,0,1,0,0-2.547Z" transform="translate(-152.385 -166.85)" fill="#fff"/>
    <path id="Path_92" data-name="Path 92" d="M76.711,244.5H60.189a1.273,1.273,0,1,0,0,2.547H76.711a1.273,1.273,0,1,0,0-2.547Z" transform="translate(-53.678 -223.724)" fill="#fff"/>
    <path id="Path_93" data-name="Path 93" d="M62.153,317.7a1.313,1.313,0,0,0,1.814-.105l3.193-3.643a1.274,1.274,0,0,0-1.918-1.678L62.9,314.947l-.627-.567a1.274,1.274,0,1,0-1.71,1.888Z" transform="translate(-54.805 -285.344)" fill="#fff"/>
    <path id="Path_94" data-name="Path 94" d="M175.418,354.07h-7.355a1.273,1.273,0,1,0,0,2.547h7.355a1.273,1.273,0,1,0,0-2.547Z" transform="translate(-152.385 -323.982)" fill="#fff"/>
    <path id="Path_95" data-name="Path 95" d="M76.711,415.337H60.189a1.273,1.273,0,1,0,0,2.547H76.711a1.273,1.273,0,1,0,0-2.547Z" transform="translate(-53.678 -380.042)" fill="#fff"/>
    <path id="Path_96" data-name="Path 96" d="M40.639,0H16.367a2.226,2.226,0,0,0-.78.153A4.191,4.191,0,0,0,14.8.077a4.153,4.153,0,0,0-3.93,2.813H9.505a1.819,1.819,0,0,0-1.813,1.7H3.2A2.948,2.948,0,0,0,.251,7.53V40.6A2.948,2.948,0,0,0,3.2,43.54H26.4a2.95,2.95,0,0,0,2.844-2.176H40.853a3.161,3.161,0,0,0,2.9-3.106V3.106A3.111,3.111,0,0,0,40.639,0Zm-30.4,5.437h1.689A1.274,1.274,0,0,0,13.2,4.189a1.6,1.6,0,0,1,3.2,0,1.274,1.274,0,0,0,1.274,1.248H19.36v1.4H10.235ZM26.795,40.6a.4.4,0,0,1-.4.4H3.2a.4.4,0,0,1-.4-.4V7.529a.4.4,0,0,1,.4-.4H7.686V7.4A1.986,1.986,0,0,0,9.671,9.386H19.924A1.986,1.986,0,0,0,21.909,7.4V7.133H26.4a.4.4,0,0,1,.4.4Zm14.4-2.339a.558.558,0,0,1-.494.555l-.037,0H29.344V7.529A2.948,2.948,0,0,0,26.4,4.586H21.9a1.835,1.835,0,0,0-1.828-1.7H18.728c-.04-.117-.086-.231-.136-.344H40.639a.56.56,0,0,1,.56.559Z" fill="#fff"/>
  </g>
</svg>
